<svg width="264" height="140" viewBox="0 0 264 140" fill="none" xmlns="http://www.w3.org/2000/svg">
<path d="M227.295 4.84569C217.592 6.72702 212.513 12.5323 213.615 20.4338C214.099 23.9008 215.227 26.2659 218.641 30.8349L220.656 33.5494L218.936 35.0275C217.996 35.8607 215.792 37.9302 214.072 39.6502C211.438 42.2572 210.766 43.0904 209.96 44.7567C208.67 47.498 208.132 50.2125 208.32 52.927C208.589 56.7434 209.772 59.2429 212.513 61.9305C216.598 65.935 221.597 67.6014 228.37 67.2251C233.826 66.9026 238.153 65.0481 242.238 61.3124L243.716 59.9686L244.334 60.5598C244.657 60.8555 245.759 62.1455 246.807 63.4087L248.661 65.6932H255.085C261.185 65.6932 261.481 65.6663 261.105 65.2094C257.933 61.5005 251.752 53.5183 251.752 53.142C251.752 52.8733 252.585 51.2876 253.606 49.6481C256.751 44.6492 256.966 44.1117 256.993 41.6391C256.993 38.8439 256.321 28.6042 256.079 27.9591C255.945 27.6097 255.622 28.1741 254.87 30.1092C252.263 36.8282 247.022 46.1005 245.893 46.0467C245.49 46.0467 236.459 35.2694 236.218 34.49C236.164 34.3556 237.75 32.6087 239.738 30.6199C241.727 28.6579 243.85 26.2659 244.469 25.3253C246.646 22.0195 247.398 17.9881 246.511 14.548C245.974 12.4248 245.302 11.2153 243.77 9.52213C242.13 7.69456 240.249 6.48513 237.588 5.59822C235.788 4.98007 234.954 4.87257 231.729 4.79194C229.66 4.76506 227.671 4.79194 227.295 4.84569ZM233.476 14.4136C236.164 15.7843 237.158 19.0363 235.788 22.0195C234.954 23.8471 230.816 28.0666 229.848 28.0666C229.122 28.0666 227.053 25.6209 226.005 23.4977C225.387 22.2345 225.279 21.6701 225.279 19.7351C225.279 17.8268 225.387 17.2893 225.897 16.4562C227.375 14.0911 230.923 13.1235 233.476 14.4136ZM232.401 46.9068C235.277 50.4544 237.669 53.5183 237.723 53.7064C237.83 54.1364 234.874 56.4209 233.342 57.1197C228.101 59.4579 222.645 57.3885 220.952 52.4164C220.334 50.5888 220.549 47.7131 221.436 45.7511C222.484 43.4666 225.978 39.9459 226.838 40.3221C227.026 40.4028 229.525 43.3591 232.401 46.9068Z" fill="white"/>
<path d="M228.908 19.8691C228.908 23.6586 232.079 23.7661 232.456 20.0034C232.536 19.1703 232.456 19.0628 231.73 18.9015C231.3 18.794 230.467 18.7134 229.929 18.6865L228.908 18.6596V19.8691Z" fill="#ECC115"/>
<path d="M4.22327 45.7233C4.22327 60.4783 4.33077 72.68 4.43828 72.8682C4.54578 73.0294 9.41035 75.5558 15.2425 78.4315C25.2135 83.4036 25.8585 83.6724 26.0467 83.1348C26.181 82.8123 26.2348 71.8469 26.2079 58.7313L26.1273 34.9191L20.0264 34.7847C16.21 34.7041 13.818 34.5429 13.6299 34.3547C13.4418 34.1666 13.3611 32.6884 13.4149 30.1889L13.4955 26.3188L30.8037 26.2381C43.3549 26.2113 48.2194 26.265 48.4613 26.48C48.757 26.7219 48.8376 27.6895 48.8376 30.5114V34.2472L48.1388 34.516C47.7625 34.6772 44.9137 34.7847 41.8229 34.7847H36.2058V79.7753C36.2058 116.999 36.2596 124.793 36.5552 125.062C37.2002 125.599 53.1915 133.958 53.5678 133.958C53.8903 133.958 53.944 130.168 53.8903 110.36L53.8097 86.79L47.7625 86.6556C44.4299 86.575 41.5542 86.4137 41.3929 86.3062C40.9091 86.0106 40.9091 78.8347 41.366 78.3778C41.6079 78.1359 45.8543 78.0552 58.8355 78.0552C75.4987 78.0552 75.9824 78.0821 76.2512 78.5659C76.6006 79.2647 76.6006 85.4462 76.2512 86.145C75.9824 86.6287 75.633 86.6556 69.9353 86.6556H63.8882L63.9419 105.657L64.0226 124.685H152.176H240.33L240.41 98.1854L240.464 71.6856L239.792 70.4224C239.416 69.7237 239.12 68.9711 239.12 68.7561C239.12 68.2455 238.852 68.2724 237.185 68.9443C230.654 71.5512 224.204 71.7394 217.646 69.5624C211.787 67.6273 206.761 62.6015 205.149 57.1456C204.155 53.7593 204.37 48.8947 205.633 45.2127C206.735 42.0682 207.837 40.5093 211.626 36.7467C213.588 34.8116 215.201 33.0109 215.201 32.769C215.201 32.554 214.717 31.7209 214.152 30.9415C212.835 29.1945 211.089 25.9425 210.524 24.1687C210.282 23.4162 210.014 21.9648 209.906 20.9436L209.691 19.0622L106.971 18.9816L4.22327 18.9278V45.7233ZM78.67 26.1844C84.9322 27.7163 88.9905 31.5059 90.6299 37.3648C91.3287 39.8643 91.4899 46.4221 90.9255 49.7278C89.9849 55.1568 88.5336 58.3013 85.5503 61.2577C82.0833 64.671 77.8369 66.2566 72.0854 66.2566C62.41 66.2566 55.8791 61.9027 53.3259 53.7324C51.4446 47.739 51.9015 39.4881 54.3741 34.3279C56.0672 30.7802 59.0236 28.227 63.1088 26.8025C67.3015 25.3512 74.1011 25.0825 78.67 26.1844ZM120.731 26.05C126.348 27.2057 130.057 30.0008 132.127 34.5429C133.444 37.4992 133.9 40.0525 133.874 44.5945C133.847 49.1097 133.363 51.8779 131.885 55.6943C129.278 62.4402 123.096 66.2298 114.63 66.2298C110.948 66.2298 108.314 65.7729 105.385 64.6441C100.278 62.6284 96.8383 58.1401 95.4138 51.5017C94.7419 48.5453 94.7688 42.1488 95.4138 39.0849C96.7845 32.7959 100.01 28.872 105.412 26.91C107.051 26.3456 108.422 26.05 112.131 25.5394C113.636 25.3244 118.662 25.62 120.731 26.05ZM187.868 25.6469C190.313 26.0231 194.506 27.3132 196.253 28.2807L197.597 29.0064L197.758 30.7533C198 33.1184 198.027 37.0692 197.839 37.5799C197.597 38.2249 196.979 38.0905 195.608 37.0961C194.022 35.9404 191.523 34.7041 189.803 34.2203C187.787 33.6828 183.111 33.7366 181.552 34.3279C178.622 35.4566 177.789 38.6011 179.993 40.1868C180.369 40.4556 182.654 41.2081 185.099 41.88C192.222 43.842 194.372 44.8095 196.683 47.1209C198.43 48.8678 198.967 50.2385 199.263 53.4636C199.747 59.1882 195.339 64.2141 188.378 65.8535C185.583 66.5254 180.987 66.4179 177.843 65.6116C174.833 64.8053 171.93 63.569 170.989 62.6284C170.344 61.9833 170.318 61.849 170.318 58.1669C170.318 53.7055 170.452 53.5174 172.414 55.0762C175.666 57.6025 180.315 59.1345 184.051 58.8926C187.679 58.6507 189.641 57.3338 189.883 54.9956C190.125 52.4692 189.023 51.7436 181.74 49.5666C172.387 46.7715 169.565 44.5139 168.866 39.2193C168.624 37.4992 169.216 34.516 170.183 32.6078C172.79 27.4744 180.235 24.545 187.868 25.6469ZM148.44 26.3994C148.682 26.5338 148.817 30.9683 148.951 41.9607L149.166 57.3607H156.853C161.072 57.3607 164.7 57.4682 164.915 57.6025C165.157 57.7638 165.319 58.7851 165.399 61.3114C165.534 64.3484 165.507 64.8322 165.104 65.2354C164.674 65.6654 163.572 65.6922 152.418 65.6922C144.49 65.6922 140.001 65.5847 139.652 65.4235C139.141 65.1547 139.141 64.6441 139.141 46.0727C139.141 35.6179 139.222 26.8563 139.303 26.6144C139.437 26.2381 140.082 26.1844 143.818 26.1844C146.183 26.1844 148.279 26.2919 148.44 26.3994ZM104.605 78.4584C109.094 79.1303 111.916 80.8772 113.475 83.968C114.872 86.7362 114.818 91.0633 113.34 94.1003C111.728 97.3792 108.556 99.2605 103.047 100.228C102.482 100.309 102.052 100.497 102.106 100.631C102.16 100.739 104.498 103.48 107.293 106.705C116.35 117.106 116.108 116.784 115.759 117.133C115.302 117.59 105.062 117.375 104.283 116.864C103.96 116.676 101.031 113.182 97.7521 109.097C94.5001 105.039 91.7049 101.706 91.5706 101.706C91.4093 101.706 91.2749 104.77 91.2481 109.42L91.1674 117.16H86.4641H81.7608L81.6802 97.9436C81.6533 87.3813 81.6802 78.5659 81.7608 78.3778C81.9489 77.8671 101.031 77.9209 104.605 78.4584ZM146.075 78.4046C146.237 78.5928 149.354 87.3006 152.982 97.7554C158.438 113.37 159.567 116.837 159.298 117.16C158.949 117.59 155.831 117.671 151.773 117.321L149.757 117.16L148.145 112.457L146.532 107.753L138.953 107.673L131.374 107.619L130.998 108.345C130.783 108.775 130.057 110.817 129.358 112.914C128.66 115.01 127.934 116.837 127.773 116.999C127.396 117.294 118.957 117.482 118.474 117.187C118.312 117.079 118.178 116.837 118.178 116.622C118.178 116.112 131.374 78.8078 131.697 78.3778C132.073 77.894 145.672 77.894 146.075 78.4046ZM184.186 78.2971C187.384 78.4853 188.647 78.7003 190.313 79.2378C194.103 80.5278 196.549 82.5973 198.376 86.1181C200.123 89.5045 200.714 92.1383 200.714 96.7341C200.714 105.173 196.602 112.484 190.233 115.332C186.846 116.837 185.18 117.052 174.886 117.294C169.646 117.402 165.157 117.429 164.942 117.348C164.727 117.267 164.459 117.079 164.351 116.918C164.029 116.434 164.082 79.184 164.405 78.5659C164.674 78.0821 165.05 78.0552 172.414 78.0552C176.66 78.0821 181.955 78.1896 184.186 78.2971ZM235.223 82.0867V85.9837L225.413 86.1181L215.604 86.2525V90.0151V93.7778L225.413 93.9121L235.223 94.0465L235.304 97.6479C235.358 100.362 235.277 101.303 235.035 101.491C234.847 101.599 230.359 101.706 225.064 101.706H215.442L215.523 105.657L215.604 109.635L225.413 109.769L235.223 109.903L235.411 112.994C235.653 116.622 235.546 117.241 234.74 117.429C234.417 117.509 227.859 117.482 220.173 117.375L206.197 117.16L206.116 97.9436C206.09 87.3813 206.116 78.5659 206.197 78.3778C206.278 78.109 209.342 78.0552 220.764 78.109L235.223 78.1896V82.0867Z" fill="#ECC115"/>
<path d="M67.705 34.8122C65.6893 35.5916 63.6198 37.7148 62.8135 39.7574C62.2491 41.2355 62.1954 41.8268 62.1685 46.4764C62.1416 51.5291 62.1416 51.6097 62.8942 53.0879C64.5336 56.4474 67.49 58.1675 71.6558 58.1675C76.0366 58.1675 78.6167 56.7699 80.283 53.491L81.2237 51.6366V46.1001C81.2237 40.7787 81.1968 40.5099 80.5786 39.2198C79.7186 37.5266 78.106 35.8872 76.386 35.054C75.2572 34.4896 74.5853 34.3821 72.0858 34.3284C69.6132 34.2746 68.8875 34.3553 67.705 34.8122Z" fill="#ECC115"/>
<path d="M110.895 34.6241C108.718 35.4035 106.837 37.0161 105.843 38.9781C104.956 40.6712 104.687 42.8751 104.794 47.5247C104.875 51.2604 104.956 52.013 105.466 53.1149C106.192 54.7274 107.993 56.5281 109.713 57.3613C110.922 57.9795 111.379 58.0332 114.416 58.0332C117.641 58.0332 117.829 58.0063 119.227 57.2269C121.055 56.2056 122.586 54.4856 123.312 52.5505C123.796 51.2336 123.876 50.4273 123.903 45.939C123.957 40.8594 123.957 40.8325 123.205 39.3006C122.264 37.3924 120.248 35.5379 118.286 34.8123C116.566 34.1404 112.481 34.0597 110.895 34.6241Z" fill="#ECC115"/>
<path d="M91.3022 89.693C91.3022 91.8162 91.3829 93.9663 91.4635 94.4232L91.6516 95.2563H95.9787C101.139 95.2563 102.321 94.9607 103.8 93.3481C104.66 92.3806 104.74 92.1656 104.74 90.6068C104.74 88.5373 104.149 87.4623 102.536 86.6022C101.461 86.0378 100.978 85.9841 96.355 85.9035L91.3022 85.796V89.693Z" fill="#ECC115"/>
<path d="M138.47 85.3395C138.093 86.3876 133.497 99.6376 133.497 99.7182C133.497 99.7719 135.863 99.8257 138.738 99.8257C141.614 99.8257 143.979 99.7451 143.979 99.6107C143.979 99.2613 139.061 85.447 138.846 85.2051C138.711 85.0438 138.55 85.0976 138.47 85.3395Z" fill="#ECC115"/>
<path d="M174.295 86.28C174.161 86.3875 174.08 91.6552 174.08 97.998V109.555L178.864 109.447C183.353 109.367 183.702 109.34 185.153 108.641C187.277 107.646 188.97 106.007 190.018 103.884L190.878 102.11V97.8098C190.878 93.6709 190.851 93.4559 190.152 92.0315C188.997 89.6664 187.733 88.4032 185.422 87.2744L183.38 86.2531L178.945 86.1725C176.472 86.1187 174.403 86.1725 174.295 86.28Z" fill="#ECC115"/>
<path d="M225.333 45.993C225.091 46.2887 224.715 46.9337 224.473 47.4981C223.022 50.9651 226.193 54.9159 229.929 54.244C231.004 54.0559 232.401 53.3571 232.401 53.0077C232.401 52.6852 226.435 45.6705 226.086 45.5899C225.924 45.563 225.575 45.7243 225.333 45.993Z" fill="#ECC115"/>
<path d="M55.6378 18.8474C83.8308 18.9011 129.95 18.9011 158.17 18.8474C186.363 18.8205 163.277 18.7936 106.89 18.7936C50.5045 18.7936 27.4179 18.8205 55.6378 18.8474Z" fill="#ECC140"/>
<path d="M228.693 19.7339C228.693 20.2445 228.747 20.4595 228.828 20.1907C228.881 19.9489 228.881 19.5188 228.828 19.2501C228.747 19.0082 228.693 19.2232 228.693 19.7339Z" fill="#ECC140"/>
<path d="M71.3605 25.5661C71.9787 25.6199 73 25.6199 73.645 25.5661C74.2632 25.5124 73.7525 25.4586 72.4893 25.4586C71.2262 25.4586 70.7155 25.5124 71.3605 25.5661Z" fill="#ECC140"/>
<path d="M113.825 25.5661C114.443 25.6199 115.41 25.6199 115.975 25.5661C116.512 25.5124 116.002 25.4586 114.819 25.4586C113.637 25.4586 113.18 25.5124 113.825 25.5661Z" fill="#ECC140"/>
<path d="M183.702 25.5661C184.32 25.6199 185.288 25.6199 185.852 25.5661C186.39 25.5124 185.879 25.4586 184.697 25.4586C183.514 25.4586 183.057 25.5124 183.702 25.5661Z" fill="#ECC140"/>
<path d="M13.4424 32.635C13.4424 33.6026 13.4961 33.9788 13.5499 33.4951C13.6036 33.0382 13.6036 32.2319 13.5499 31.7481C13.4961 31.2912 13.4424 31.6675 13.4424 32.635Z" fill="#ECC140"/>
<path d="M197.839 34.7848C197.839 36.3436 197.866 36.9618 197.92 36.1824C197.974 35.4299 197.974 34.1398 197.92 33.3604C197.866 32.6079 197.839 33.226 197.839 34.7848Z" fill="#ECC140"/>
<path d="M20.4301 34.7043C21.4245 34.7581 23.0371 34.7581 24.0584 34.7043C25.0528 34.6506 24.2197 34.6237 22.2308 34.6237C20.242 34.6237 19.4088 34.6506 20.4301 34.7043Z" fill="#ECC140"/>
<path d="M36.0719 34.839C35.9913 35.0271 35.9644 52.5503 35.9913 73.7556L36.0719 112.323L36.1525 73.5674L36.2063 34.7852L42.0653 34.7046L47.8974 34.6509L42.0384 34.5702C37.5501 34.5434 36.1525 34.5971 36.0719 34.839Z" fill="#ECC140"/>
<path d="M168.786 38.1444C168.786 38.7356 168.84 38.9506 168.894 38.6013C168.947 38.2787 168.947 37.795 168.894 37.5262C168.813 37.2843 168.759 37.5531 168.786 38.1444Z" fill="#ECC140"/>
<path d="M148.925 49.1637C148.925 53.437 148.978 55.1571 149.005 52.9801C149.059 50.7763 149.059 47.2824 149.005 45.1861C148.978 43.0897 148.925 44.8636 148.925 49.1637Z" fill="#ECC140"/>
<path d="M81.4391 43.5197C81.4391 44.2453 81.4928 44.541 81.5466 44.1109C81.6003 43.7078 81.6003 43.1165 81.5466 42.7671C81.4928 42.4446 81.4391 42.7671 81.4391 43.5197Z" fill="#ECC140"/>
<path d="M52.1436 46.8789C52.1436 47.5508 52.1973 47.8196 52.2511 47.4702C52.3048 47.1477 52.3048 46.6101 52.2511 46.2607C52.1973 45.9382 52.1436 46.207 52.1436 46.8789Z" fill="#ECC140"/>
<path d="M123.904 48.6263C123.904 49.2176 123.957 49.4326 124.011 49.0832C124.065 48.7607 124.065 48.2769 124.011 48.0081C123.93 47.7663 123.877 48.035 123.904 48.6263Z" fill="#ECC140"/>
<path d="M71.3604 58.3552C71.6829 58.4089 72.2204 58.4089 72.5698 58.3552C72.8923 58.3014 72.6236 58.2477 71.9517 58.2477C71.2798 58.2477 71.011 58.3014 71.3604 58.3552Z" fill="#ECC140"/>
<path d="M114.228 58.3552C114.47 58.4089 114.9 58.4089 115.169 58.3552C115.411 58.2746 115.196 58.2208 114.685 58.2208C114.174 58.2208 113.959 58.2746 114.228 58.3552Z" fill="#ECC140"/>
<path d="M165.319 62.1984C165.319 63.7572 165.346 64.3754 165.4 63.596C165.454 62.8434 165.454 61.5534 165.4 60.774C165.346 60.0214 165.319 60.6396 165.319 62.1984Z" fill="#ECC140"/>
<path d="M56.9006 60.3981C56.9006 60.4519 57.3038 60.8282 57.7875 61.285L58.6476 62.0645L57.8682 61.1775C57.1156 60.3713 56.9006 60.1831 56.9006 60.3981Z" fill="#ECC140"/>
<path d="M146.075 65.612C149.489 65.6658 155.133 65.6658 158.573 65.612C161.986 65.5852 159.191 65.5583 152.311 65.5583C145.43 65.5583 142.635 65.5852 146.075 65.612Z" fill="#ECC140"/>
<path d="M179.806 78.2429C180.209 78.2966 180.8 78.2966 181.149 78.2429C181.472 78.1891 181.149 78.1354 180.397 78.1354C179.671 78.1354 179.376 78.1891 179.806 78.2429Z" fill="#ECC140"/>
<path d="M76.3597 82.3554C76.3597 84.3442 76.3866 85.1773 76.4404 84.1561C76.4941 83.1616 76.4941 81.5491 76.4404 80.5278C76.3866 79.5334 76.3597 80.3665 76.3597 82.3554Z" fill="#ECC140"/>
<path d="M42.7377 86.5749C43.2752 86.6287 44.189 86.6287 44.7534 86.5749C45.2909 86.5212 44.834 86.4674 43.7321 86.4674C42.6302 86.4674 42.1733 86.5212 42.7377 86.5749Z" fill="#ECC140"/>
<path d="M63.7542 86.7093C63.6735 86.8975 63.6467 95.471 63.6735 105.738L63.7542 124.417L63.8348 105.549L63.8885 86.6825L65.9849 86.575L68.0543 86.4943L65.958 86.4406C64.5067 86.4137 63.8348 86.4943 63.7542 86.7093Z" fill="#ECC140"/>
<path d="M215.281 88.0001C215.281 88.8064 215.335 89.1558 215.389 88.7258C215.443 88.3226 215.443 87.6776 215.389 87.2476C215.335 86.8444 215.281 87.1938 215.281 88.0001Z" fill="#ECC140"/>
<path d="M104.794 90.4179C104.794 90.9286 104.848 91.1436 104.928 90.8748C104.982 90.6329 104.982 90.2029 104.928 89.9342C104.848 89.6923 104.794 89.9073 104.794 90.4179Z" fill="#ECC140"/>
<path d="M217.028 101.626C217.646 101.679 218.668 101.679 219.313 101.626C219.931 101.572 219.42 101.518 218.157 101.518C216.894 101.518 216.383 101.572 217.028 101.626Z" fill="#ECC140"/>
<path d="M173.919 106.141C173.919 107.915 173.946 108.614 174 107.673C174.054 106.759 174.054 105.308 174 104.448C173.946 103.615 173.919 104.367 173.919 106.141Z" fill="#ECC140"/>
<path d="M194.614 112.241L193.835 113.128L194.722 112.349C195.179 111.892 195.582 111.515 195.582 111.462C195.582 111.247 195.367 111.435 194.614 112.241Z" fill="#ECC140"/>
<path d="M235.438 115.681C235.438 116.353 235.492 116.622 235.546 116.272C235.6 115.95 235.6 115.412 235.546 115.063C235.492 114.74 235.438 115.009 235.438 115.681Z" fill="#ECC140"/>
<path d="M113.959 117.483C114.201 117.536 114.631 117.536 114.899 117.483C115.141 117.402 114.926 117.348 114.416 117.348C113.905 117.348 113.69 117.402 113.959 117.483Z" fill="#ECC140"/>
<path d="M154.811 117.483C155.671 117.536 156.988 117.536 157.767 117.483C158.546 117.429 157.848 117.402 156.208 117.402C154.596 117.402 153.951 117.429 154.811 117.483Z" fill="#ECC140"/>
<path d="M165.965 117.483C166.422 117.536 167.228 117.536 167.712 117.483C168.168 117.429 167.792 117.375 166.825 117.375C165.857 117.375 165.481 117.429 165.965 117.483Z" fill="#ECC140"/>
<path d="M226.973 117.483C228.504 117.536 230.923 117.536 232.348 117.483C233.772 117.456 232.536 117.402 229.58 117.402C226.623 117.402 225.441 117.456 226.973 117.483Z" fill="#ECC140"/>
</svg>
