<svg width="22" height="16" viewBox="0 0 22 16" fill="none" xmlns="http://www.w3.org/2000/svg">
<path d="M0.557007 2.67348L10.9061 7.84738L21.2552 2.67348C21.2169 2.01405 20.9279 1.39422 20.4474 0.940942C19.967 0.487661 19.3314 0.23523 18.6708 0.235352H3.14137C2.48083 0.23523 1.84524 0.487661 1.36477 0.940942C0.884301 1.39422 0.595318 2.01405 0.557007 2.67348Z" fill="white"/>
<path d="M21.2589 5.5647L10.906 10.7412L0.552979 5.5647V13.1767C0.552979 13.8632 0.825668 14.5215 1.31106 15.0069C1.79645 15.4923 2.45478 15.765 3.14122 15.765H18.6707C19.3571 15.765 20.0155 15.4923 20.5009 15.0069C20.9862 14.5215 21.2589 13.8632 21.2589 13.1767V5.5647Z" fill="white"/>
</svg>
