<svg width="41" height="26" viewBox="0 0 41 26" fill="none" xmlns="http://www.w3.org/2000/svg">
<rect x="0.552979" width="40" height="26" rx="13" fill="white"/>
<path d="M15.3538 13.6445C16.1558 14.4466 17.1298 14.8477 18.2756 14.8477C19.4215 14.8477 20.3954 14.4466 21.1975 13.6445C21.9996 12.8424 22.4006 11.8685 22.4006 10.7227C22.4006 9.57682 21.9996 8.60286 21.1975 7.80078C20.3954 6.9987 19.4215 6.59766 18.2756 6.59766C17.1298 6.59766 16.1558 6.9987 15.3538 7.80078C14.5517 8.60286 14.1506 9.57682 14.1506 10.7227C14.1506 11.8685 14.5517 12.8424 15.3538 13.6445ZM23.7756 14.8477L28.3303 19.4023L26.9553 20.7773L22.4006 16.2227V15.4922L22.1428 15.2344C21.0543 16.1797 19.7652 16.6523 18.2756 16.6523C16.6142 16.6523 15.1962 16.0794 14.0217 14.9336C12.8759 13.7878 12.303 12.3841 12.303 10.7227C12.303 9.0612 12.8759 7.65755 14.0217 6.51172C15.1962 5.33724 16.6142 4.75 18.2756 4.75C19.9371 4.75 21.3407 5.33724 22.4866 6.51172C23.6324 7.65755 24.2053 9.0612 24.2053 10.7227C24.2053 11.3242 24.0621 12.0117 23.7756 12.7852C23.4892 13.5299 23.1597 14.1315 22.7874 14.5898L23.0452 14.8477H23.7756Z" fill="black"/>
</svg>
